# xmcd
#
# Track frame offsets:
#	150
#	25635
#	46900
#	70757
#	87767
#	105879
#	125170
#	144330
#	158747
#	175612
#	207145
#
# Disc length: 2816 seconds
#
# Revision: 0
# Processed by: cddbd v1.5.2PL0 Copyright (c) Steve Scherf et al.
# Submitted via: EasyCDDAExtractor 15.3.0.1
#
DISCID=800afe0b
DTITLE=มาลีฮวนน่า - เปรือย
DYEAR=2002
DGENRE=Country
TTITLE0=ชบา
TTITLE1=ระบำชีวิต
TTITLE2=เรียนรู้
TTITLE3=มาลีฮวนน่า ปาร์ตี้
TTITLE4=สายน้ำ สายเลือด
TTITLE5=ลัง
TTITLE6=ไกลบ้าน
TTITLE7=ละหมาดอารมณ์
TTITLE8=ธารหัวใจ
TTITLE9=ระยำชีวิต
TTITLE10=เปรือย
EXTD=
EXTT0=
EXTT1=
EXTT2=
EXTT3=
EXTT4=
EXTT5=
EXTT6=
EXTT7=
EXTT8=
EXTT9=
EXTT10=
PLAYORDER=
